<svg width="151" height="145" viewBox="0 0 151 145" fill="none" xmlns="http://www.w3.org/2000/svg">
<path d="M75.5 144.333C65.0558 144.333 55.2408 142.438 46.055 138.647C36.8692 134.855 28.8787 129.715 22.0837 123.225C15.2888 116.734 9.91064 109.097 5.94941 100.312C1.98818 91.5266 0.00504289 82.1449 9.55695e-06 72.1667C-0.00502377 62.1884 1.97811 52.8067 5.94941 44.0217C9.9207 35.2366 15.2988 27.5989 22.0837 21.1087C28.8687 14.6186 36.8591 9.47789 46.055 5.68673C55.2509 1.89558 65.0659 0 75.5 0C85.9341 0 95.749 1.89558 104.945 5.68673C114.141 9.47789 122.131 14.6186 128.916 21.1087C135.701 27.5989 141.082 35.2366 145.058 44.0217C149.034 52.8067 151.015 62.1884 151 72.1667C150.985 82.1449 149.002 91.5266 145.051 100.312C141.099 109.097 135.721 116.734 128.916 123.225C122.111 129.715 114.121 134.858 104.945 138.654C95.7692 142.45 85.9542 144.343 75.5 144.333Z" fill="#FF981E"/>
<path d="M18.8745 42.3978V84.0941H30.1995V73.67H64.1745L75.4995 63.2459L64.1745 52.8219H30.1995V42.3978H18.8745ZM120.799 42.3978V52.8219H75.4995L86.8245 63.2459L75.4995 73.67H120.799V84.0941H132.124V42.3978H120.799ZM75.4995 84.0941C75.4995 84.0941 64.1745 95.4042 64.1745 102.336C64.1745 105.101 65.3676 107.752 67.4915 109.707C69.6153 111.662 72.4959 112.76 75.4995 112.76C78.503 112.76 81.3836 111.662 83.5074 109.707C85.6313 107.752 86.8245 105.101 86.8245 102.336C86.8245 95.4042 75.4995 84.0941 75.4995 84.0941Z" fill="#0F123F"/>
</svg>
