<svg width="107" height="102" viewBox="0 0 107 102" fill="none" xmlns="http://www.w3.org/2000/svg">
<path d="M53.5 102C46.0991 102 39.1441 100.66 32.635 97.9812C26.1258 95.302 20.4637 91.6691 15.6487 87.0825C10.8338 82.4959 7.02277 77.0984 4.2158 70.89C1.40884 64.6816 0.00357344 58.0516 6.77215e-06 51C-0.00355989 43.9484 1.40171 37.3184 4.2158 31.11C7.0299 24.9016 10.8409 19.5041 15.6487 14.9175C20.4566 10.3309 26.1187 6.698 32.635 4.0188C39.1513 1.3396 46.1063 0 53.5 0C60.8937 0 67.8487 1.3396 74.365 4.0188C80.8812 6.698 86.5433 10.3309 91.3512 14.9175C96.1591 19.5041 99.9718 24.9016 102.789 31.11C105.607 37.3184 107.011 43.9484 107 51C106.989 58.0516 105.584 64.6816 102.784 70.89C99.9843 77.0984 96.1733 82.4959 91.3512 87.0825C86.5291 91.6691 80.867 95.3037 74.365 97.9863C67.8629 100.669 60.9079 102.007 53.5 102Z" fill="white"/>
<path d="M13.3746 29.9624V59.4291H21.3996V52.0624H45.4746L53.4996 44.6957L45.4746 37.3291H21.3996V29.9624H13.3746ZM85.5996 29.9624V37.3291H53.4996L61.5246 44.6957L53.4996 52.0624H85.5996V59.4291H93.6246V29.9624H85.5996ZM53.4996 59.4291C53.4996 59.4291 45.4746 67.4219 45.4746 72.3207C45.4746 74.2745 46.3201 76.1482 47.8251 77.5297C49.3301 78.9113 51.3712 79.6874 53.4996 79.6874C55.628 79.6874 57.6692 78.9113 59.1741 77.5297C60.6791 76.1482 61.5246 74.2745 61.5246 72.3207C61.5246 67.4219 53.4996 59.4291 53.4996 59.4291Z" fill="#2148C0"/>
</svg>
