<svg width="20" height="21" viewBox="0 0 20 21" fill="none" xmlns="http://www.w3.org/2000/svg">
<path fill-rule="evenodd" clip-rule="evenodd" d="M4.60555 5.51378C6.19373 6.05875 7.85704 4.9649 8.15252 3.45575C8.33418 2.6714 8.5474 2.3284 8.75895 2.15285C8.96315 1.9834 9.31148 1.84999 10.0683 1.84999C10.6539 1.84999 10.9863 1.99729 11.2034 2.2013C11.4369 2.42073 11.6534 2.81471 11.7833 3.52742L11.7833 3.52742L11.7841 3.53188C11.9395 4.35915 12.509 4.98299 13.171 5.3281C13.8349 5.67419 14.6678 5.78319 15.453 5.50676C15.464 5.50292 15.4748 5.49885 15.4855 5.49457C16.2387 5.19431 16.6481 5.20024 16.8981 5.28468C17.144 5.36773 17.4261 5.5908 17.775 6.18204C18.1317 6.78636 18.1787 7.1088 18.1377 7.32686C18.0949 7.55514 17.9138 7.8927 17.2774 8.42088L17.2657 8.43072C15.9885 9.52985 15.9885 11.4701 17.2657 12.5693L17.2774 12.5791C17.9138 13.1073 18.0949 13.4448 18.1377 13.6731C18.1787 13.8912 18.1317 14.2136 17.775 14.8179C17.428 15.4058 17.1417 15.6392 16.882 15.7328C16.6168 15.8283 16.1996 15.8428 15.4488 15.5868C13.926 15.0535 12.0762 15.9607 11.7818 17.6708C11.651 18.4305 11.4407 18.7311 11.2527 18.8767C11.0501 19.0337 10.697 19.15 9.97013 19.15C9.27052 19.15 8.9105 19.0198 8.69895 18.8501C8.49395 18.6856 8.28632 18.3694 8.15762 17.6662C7.8607 15.9591 6.01294 15.054 4.49144 15.5867C3.74068 15.8428 3.32348 15.8283 3.05826 15.7328C2.79852 15.6392 2.51222 15.4058 2.16523 14.8179C2.16047 14.8099 2.15559 14.8019 2.15057 14.794C1.84551 14.3141 1.81361 13.9815 1.87819 13.7201C1.95076 13.4262 2.18763 13.0489 2.75688 12.5825L2.77267 12.5693C4.07189 11.4512 3.9292 9.51335 2.67821 8.52704C2.11061 7.97074 1.9334 7.61707 1.89222 7.36078C1.85303 7.11685 1.90933 6.78512 2.25613 6.19432C2.57418 5.6978 2.86777 5.48716 3.15534 5.39857C3.4641 5.30346 3.90822 5.3048 4.60555 5.51378ZM10.0683 0.149994C9.15689 0.149994 8.32773 0.301589 7.67333 0.844634C7.02757 1.38052 6.70241 2.17439 6.49229 3.08984C6.48975 3.10088 6.48744 3.11197 6.48535 3.12311C6.3793 3.68781 5.70777 4.09964 5.14987 3.90323C5.13793 3.89902 5.12588 3.89508 5.11376 3.89141C4.25025 3.63016 3.42314 3.53725 2.65487 3.77391C1.8653 4.01714 1.27809 4.5639 0.813996 5.29402C0.80898 5.30192 0.804094 5.30989 0.799341 5.31794C0.367583 6.04945 0.0814931 6.80732 0.213749 7.63046C0.343499 8.438 0.847103 9.12064 1.52886 9.78068C1.55407 9.80509 1.58077 9.82791 1.60879 9.84901C2.07877 10.2029 2.11446 10.8861 1.67012 11.2752C0.968304 11.8521 0.424172 12.5173 0.227785 13.3124C0.0236125 14.139 0.23367 14.9423 0.708238 15.6939C1.14508 16.4308 1.69123 17.0473 2.4821 17.3322C3.27135 17.6165 4.12897 17.5071 5.04433 17.1943L5.04434 17.1944L5.05175 17.1918C5.68683 16.9682 6.38522 17.3908 6.48307 17.9592L6.48303 17.9592L6.48452 17.9674C6.65025 18.8766 6.98195 19.6521 7.63521 20.1762C8.28225 20.6952 9.09974 20.85 9.97013 20.85C10.8133 20.85 11.6377 20.7288 12.2937 20.2208C12.9643 19.7013 13.2936 18.9095 13.4572 17.9592C13.555 17.3908 14.2534 16.9682 14.8885 17.1918L14.8885 17.1918L14.8959 17.1943C15.8113 17.5071 16.6689 17.6165 17.4582 17.3322C18.2533 17.0458 18.801 16.4242 19.239 15.682C19.6674 14.9564 19.9638 14.1863 19.8085 13.3594C19.6556 12.5452 19.1037 11.8868 18.3698 11.2765C17.8872 10.8565 17.8872 10.1435 18.3698 9.72345C19.1037 9.11322 19.6556 8.45483 19.8085 7.64063C19.9638 6.81368 19.6674 6.04363 19.239 5.31794C18.803 4.57918 18.251 3.94726 17.4421 3.67406C16.6428 3.40414 15.783 3.54864 14.8751 3.90785C14.5839 4.00575 14.2453 3.97098 13.9569 3.82064C13.6629 3.66739 13.4967 3.43702 13.4552 3.21978C13.2906 2.31864 12.9675 1.52618 12.3675 0.962435C11.7506 0.382698 10.9545 0.149994 10.0683 0.149994ZM7.8502 10.5C7.8502 9.31258 8.81279 8.34999 10.0002 8.34999C11.1876 8.34999 12.1502 9.31258 12.1502 10.5C12.1502 11.6874 11.1876 12.65 10.0002 12.65C8.81279 12.65 7.8502 11.6874 7.8502 10.5ZM10.0002 6.64999C7.8739 6.64999 6.1502 8.3737 6.1502 10.5C6.1502 12.6263 7.8739 14.35 10.0002 14.35C12.1265 14.35 13.8502 12.6263 13.8502 10.5C13.8502 8.3737 12.1265 6.64999 10.0002 6.64999Z" fill="#67698E"/>
</svg>
